<?xml version="1.0" standalone="no"?>
<!DOCTYPE svg PUBLIC "-//W3C//DTD SVG 20010904//EN"
 "http://www.w3.org/TR/2001/REC-SVG-20010904/DTD/svg10.dtd">
<svg version="1.0" xmlns="http://www.w3.org/2000/svg"
 width="236.000000pt" height="154.000000pt" viewBox="0 0 236.000000 154.000000"
 preserveAspectRatio="xMidYMid meet">

<g transform="translate(0.000000,154.000000) scale(0.100000,-0.100000)"
fill="#000000" stroke="none">
<path d="M0 770 l0 -770 323 0 c291 1 319 2 294 16 -15 8 -27 21 -27 29 0 20
-24 19 -40 -1 -8 -8 -22 -20 -32 -25 -17 -9 -18 -8 -9 10 17 31 13 39 -7 13
l-18 -23 1 38 c1 21 7 48 13 61 7 12 10 28 6 34 -4 6 -3 8 3 5 6 -4 14 0 17 9
3 8 2 12 -4 9 -6 -3 -7 1 -4 9 3 9 10 13 15 10 5 -3 6 1 4 9 -9 22 52 95 110
132 29 19 93 58 142 86 89 53 95 54 226 59 11 0 -2 236 -14 268 -14 36 12 27
73 -28 31 -28 61 -50 67 -50 6 0 20 -11 32 -24 19 -22 69 -30 86 -13 3 4 13 2
23 -3 10 -5 20 -7 22 -4 3 2 19 9 36 13 l31 9 -13 -31 c-29 -69 -47 -182 -44
-272 3 -84 4 -90 25 -93 18 -3 23 -12 29 -48 3 -25 16 -59 28 -77 12 -18 32
-53 45 -79 18 -39 28 -48 48 -48 25 0 25 1 9 25 -21 33 -3 33 22 0 l20 -25
411 0 411 0 0 202 c0 177 -2 204 -17 222 -17 20 -17 20 0 7 16 -13 17 15 17
548 l0 561 -1180 0 -1180 0 0 -770z m1028 709 c-6 -16 -12 -28 -14 -26 -5 5
13 57 20 57 3 0 0 -14 -6 -31z m134 -201 c26 -26 33 -29 49 -20 13 8 19 9 19
1 0 -5 4 -8 9 -5 5 3 25 -16 45 -44 20 -27 40 -50 46 -50 5 0 14 15 19 33 9
32 9 32 10 -13 1 -52 9 -67 42 -84 14 -7 24 -21 24 -34 0 -12 9 -28 20 -36 16
-11 17 -18 8 -37 -7 -13 -12 -18 -12 -11 -1 15 -53 16 -69 0 -9 -9 -12 -5 -12
19 0 17 -3 46 -6 64 -4 26 -3 30 5 19 13 -18 13 -3 1 25 -5 11 -9 14 -9 6 -1
-8 -8 -4 -20 10 l-19 24 7 -41 c4 -22 11 -46 15 -52 3 -6 2 -14 -4 -17 -19
-12 -61 25 -80 70 -15 35 -23 43 -37 39 -16 -5 -16 -4 1 10 34 28 10 28 -44 1
-49 -25 -53 -25 -65 -8 -11 14 -10 20 4 31 9 8 4 7 -11 -2 -30 -18 -37 -7 -12
18 14 15 13 16 -6 16 -29 0 -60 18 -60 34 0 14 39 33 80 38 14 2 24 9 23 16
-4 19 5 14 39 -20z m177 -7 c8 -14 7 -22 -4 -31 -13 -11 -15 -8 -13 19 3 36 4
37 17 12z m-269 -151 c0 -5 -4 -10 -9 -10 -6 0 -13 5 -16 10 -3 6 1 10 9 10 9
0 16 -4 16 -10z m106 -79 c13 -12 115 -45 137 -43 9 0 17 -5 17 -12 0 -8 7
-19 16 -27 12 -10 20 -10 35 -1 10 7 21 12 24 12 12 0 -27 -60 -45 -70 -18
-10 -19 -13 -5 -26 8 -9 15 -20 15 -27 0 -6 9 -20 19 -31 38 -41 32 -46 -61
-50 -48 -2 -91 -7 -97 -10 -12 -7 -81 24 -81 36 0 5 -4 6 -10 3 -5 -3 -10 1
-10 10 0 9 -4 13 -10 10 -5 -3 -10 -1 -10 4 0 6 -12 11 -27 11 -19 0 -24 3
-15 9 8 4 13 10 11 12 -1 2 1 14 5 26 4 12 0 44 -8 72 l-14 49 36 26 c38 27
61 32 78 17z m1028 -17 c4 -9 4 -19 1 -22 -7 -8 -35 19 -29 29 8 14 21 11 28
-7z m-327 -20 c-3 -3 -12 -4 -19 -1 -8 3 -5 6 6 6 11 1 17 -2 13 -5z m319 -31
c-4 -4 -11 -1 -16 7 -16 25 -11 35 7 17 9 -9 13 -20 9 -24z m-401 17 c-3 -5
-16 -10 -28 -9 -20 1 -20 2 3 9 14 4 26 8 28 9 2 1 0 -3 -3 -9z m42 4 c-3 -3
-12 -4 -19 -1 -8 3 -5 6 6 6 11 1 17 -2 13 -5z m-190 -30 c-3 -3 -12 -4 -19
-1 -8 3 -5 6 6 6 11 1 17 -2 13 -5z m472 -64 c-7 -5 -18 -6 -24 -2 -6 4 -3 8
8 10 9 2 17 9 18 15 0 7 3 7 6 -2 3 -7 -1 -17 -8 -21z m-1225 -20 c-1 -34 -15
-41 -25 -13 -6 13 -8 14 -9 3 0 -12 -4 -11 -15 4 -21 28 -19 31 18 33 30 2 32
0 31 -27z m134 -14 c7 -21 10 -41 7 -44 -11 -11 -88 -7 -92 6 -3 7 4 12 19 12
17 0 19 3 9 9 -11 7 -9 10 9 16 16 5 19 10 11 18 -16 16 -13 29 7 25 10 -2 22
-20 30 -42z m-72 24 c30 0 12 -15 -20 -17 -27 -1 -34 2 -29 13 3 8 12 13 20
10 8 -3 21 -6 29 -6z m516 -145 c-12 -22 -27 -2 -18 22 5 12 10 13 17 6 7 -7
8 -17 1 -28z m-220 -86 c-23 -9 -27 -3 -12 16 11 13 15 13 21 3 5 -8 2 -15 -9
-19z"/>
<path d="M917 429 c7 -7 15 -10 18 -7 3 3 -2 9 -12 12 -14 6 -15 5 -6 -5z"/>
<path d="M960 410 c8 -5 20 -10 25 -10 6 0 3 5 -5 10 -8 5 -19 10 -25 10 -5 0
-3 -5 5 -10z"/>
<path d="M1030 375 c0 -2 18 -14 40 -25 22 -11 40 -18 40 -15 0 2 -18 14 -40
25 -22 11 -40 18 -40 15z"/>
<path d="M838 285 c-2 -3 10 -34 28 -70 18 -36 36 -83 40 -103 3 -20 10 -54
15 -74 9 -36 11 -38 50 -36 40 1 41 2 35 32 -10 47 -26 56 -27 16 -1 -30 -3
-26 -15 24 -22 91 -105 231 -126 211z"/>
<path d="M1221 205 c64 -86 78 -100 53 -57 -10 18 -38 54 -62 80 -41 44 -40
43 9 -23z"/>
<path d="M813 110 c29 -60 58 -110 65 -110 6 0 12 2 12 4 0 14 -116 216 -125
216 -2 0 20 -49 48 -110z"/>
<path d="M1004 145 c3 -11 8 -46 12 -78 7 -60 16 -71 53 -65 21 3 21 4 -8 63
-16 33 -36 69 -45 80 l-17 20 5 -20z"/>
<path d="M491 74 c0 -11 3 -14 6 -6 3 7 2 16 -1 19 -3 4 -6 -2 -5 -13z"/>
<path d="M752 24 c1 -9 9 -19 16 -22 9 -3 13 2 10 14 -1 9 -9 19 -16 22 -9 3
-13 -2 -10 -14z"/>
</g>
</svg>
