<?xml version="1.0" standalone="no"?>
<!DOCTYPE svg PUBLIC "-//W3C//DTD SVG 20010904//EN"
 "http://www.w3.org/TR/2001/REC-SVG-20010904/DTD/svg10.dtd">
<svg version="1.0" xmlns="http://www.w3.org/2000/svg"
 width="232.000000pt" height="139.000000pt" viewBox="0 0 232.000000 139.000000"
 preserveAspectRatio="xMidYMid meet">

<g transform="translate(0.000000,139.000000) scale(0.100000,-0.100000)"
fill="#000000" stroke="none">
<path d="M492 1382 l-492 -2 0 -690 0 -690 600 0 c593 0 600 0 600 20 0 26 22
26 38 0 10 -16 23 -20 66 -20 52 0 54 1 61 33 6 26 9 28 13 12 4 -15 7 -11 16
20 9 31 17 41 36 43 36 5 43 16 29 46 -11 23 -10 28 7 41 19 14 19 14 -1 15
l-20 1 20 9 c27 12 67 12 60 1 -3 -6 4 -15 16 -21 19 -11 21 -17 15 -71 -6
-47 -4 -60 8 -65 8 -3 20 -19 26 -35 l12 -29 359 0 359 0 0 696 0 696 -667 -4
c-368 -1 -890 -4 -1161 -6z m1375 -55 c32 -13 92 -34 133 -46 205 -61 196 -55
245 -157 33 -67 47 -111 24 -71 -5 9 -17 17 -25 17 -8 0 -25 7 -38 16 -16 10
-26 12 -31 4 -3 -6 -11 -7 -17 -4 -11 7 -28 -13 -28 -33 0 -11 36 -22 88 -26
18 -1 23 -6 19 -23 -3 -16 2 -24 17 -28 21 -5 21 -5 1 -20 -11 -9 -38 -16 -60
-16 -30 0 -36 -3 -27 -12 15 -15 16 -67 1 -105 l-10 -28 -16 33 c-15 31 -38
37 -26 7 3 -9 -5 -23 -18 -34 -20 -16 -21 -21 -11 -47 19 -47 24 -124 9 -124
-7 0 -17 4 -22 9 -15 13 -75 -16 -75 -37 -1 -22 -39 -59 -123 -116 -68 -46
-69 -47 -129 -40 -56 6 -62 5 -79 -17 -29 -39 -34 -13 -11 58 12 36 19 70 16
75 -3 5 2 8 12 6 30 -5 29 35 0 68 l-26 29 6 -42 c7 -43 3 -48 -33 -44 -7 1
-20 -10 -29 -24 -9 -13 -21 -22 -26 -19 -5 4 -20 1 -33 -6 -21 -11 -23 -18
-18 -61 3 -29 1 -60 -7 -79 -10 -25 -18 -30 -46 -30 -27 0 -36 6 -50 31 -15
30 -15 36 7 108 13 44 23 101 23 135 -1 50 -4 61 -25 77 -37 28 -94 20 -94
-13 0 -7 -22 -21 -50 -30 -62 -20 -96 -22 -37 -1 23 8 42 19 42 25 0 20 63 89
97 106 26 13 41 30 57 67 11 28 29 59 39 70 32 35 114 170 114 188 0 11 -8 17
-23 17 -14 0 -24 8 -27 22 -6 21 9 41 24 32 10 -6 100 58 113 81 12 22 52 57
75 67 28 12 48 9 108 -15z m413 -387 c0 -5 -6 -10 -12 -10 -7 0 -24 -3 -38 -6
l-25 -6 25 15 c30 18 50 21 50 7z m-1993 -171 c15 -6 38 -20 51 -32 21 -20 23
-28 17 -77 -4 -30 -14 -63 -22 -72 -22 -25 -72 -31 -118 -15 -40 14 -40 15
-48 77 -4 35 -6 69 -3 76 5 12 71 52 88 54 4 0 19 -5 35 -11z m1888 -280 c5
-5 -4 -9 -23 -9 -22 0 -32 5 -32 16 0 11 6 14 23 9 12 -4 26 -11 32 -16z
m-2012 -79 c3 -11 -3 -30 -12 -42 l-18 -22 -18 27 c-14 22 -15 30 -5 42 18 21
47 19 53 -5z m1199 -27 c-13 -39 -17 -43 -20 -24 -5 34 6 71 23 71 12 0 11 -8
-3 -47z m787 -9 c-17 -21 -31 -17 -17 5 7 11 16 17 20 14 5 -2 4 -11 -3 -19z
m-109 6 c0 -5 -2 -10 -4 -10 -3 0 -8 5 -11 10 -3 6 -1 10 4 10 6 0 11 -4 11
-10z m-2 -48 c2 -7 -3 -12 -12 -12 -9 0 -16 7 -16 16 0 17 22 14 28 -4z m-543
-62 c-3 -5 -13 -10 -21 -10 -8 0 -12 5 -9 10 3 6 13 10 21 10 8 0 12 -4 9 -10z
m18 -27 c-7 -2 -19 -2 -25 0 -7 3 -2 5 12 5 14 0 19 -2 13 -5z"/>
<path d="M1727 1206 l-16 -24 34 11 c19 6 35 14 35 19 0 5 5 6 12 2 7 -4 8 -3
4 4 -12 21 -53 13 -69 -12z"/>
<path d="M1660 1181 c-9 -19 -8 -21 15 -21 28 0 32 12 11 29 -12 10 -17 8 -26
-8z"/>
<path d="M2035 1145 l-29 -24 29 -11 c36 -14 50 -1 39 33 l-9 25 -30 -23z"/>
<path d="M2090 1110 c-10 -18 -9 -25 3 -37 13 -13 15 -11 21 13 9 36 -8 53
-24 24z"/>
<path d="M1660 1066 c0 -9 7 -16 16 -16 9 0 14 5 12 12 -6 18 -28 21 -28 4z"/>
<path d="M1589 1044 c-34 -25 -65 -71 -55 -81 11 -12 36 20 31 38 -4 11 -2 19
4 19 18 0 73 38 63 44 -5 3 -24 -6 -43 -20z"/>
<path d="M1605 995 c-28 -15 -55 -41 -55 -54 0 -10 90 -10 96 0 4 6 15 3 27
-8 12 -10 6 -1 -13 20 -26 28 -30 36 -15 31 11 -4 30 -16 41 -26 29 -26 39 -7
13 26 -23 30 -51 33 -94 11z"/>
<path d="M1722 979 c2 -7 10 -15 17 -17 8 -3 12 1 9 9 -2 7 -10 15 -17 17 -8
3 -12 -1 -9 -9z"/>
<path d="M1832 938 c-32 -32 -4 -58 61 -58 35 0 63 -14 71 -37 5 -13 1 -12
-18 6 -22 21 -29 22 -63 13 -21 -5 -30 -10 -20 -11 10 -1 25 -8 34 -16 8 -9
23 -13 33 -10 14 4 20 -1 25 -24 7 -31 33 -47 70 -42 49 7 46 51 -8 104 -24
23 -46 50 -50 60 -3 9 -17 17 -29 17 -20 0 -16 -6 25 -43 31 -29 47 -52 47
-68 0 -21 -5 -17 -46 29 -28 32 -54 52 -67 52 -20 1 -21 2 -5 14 10 7 15 16
11 19 -11 11 -58 8 -71 -5z"/>
<path d="M1625 821 c-12 -20 5 -49 35 -61 17 -7 30 -16 30 -21 0 -5 12 -7 28
-4 21 4 23 3 7 -3 -19 -9 -19 -9 1 -20 23 -12 37 -6 47 21 8 20 -46 81 -73 83
-8 1 -27 5 -41 9 -16 4 -30 2 -34 -4z"/>
</g>
</svg>
